<svg xmlns="http://www.w3.org/2000/svg"
     viewBox="0 12.1 149.35 48.8"
     width="500" height="180">
  <path d = "M3.95 60.90Q3.60 60.90 2.77 60.65Q1.95 60.40 1.22 60Q0.50 59.60 0.50 59.20Q0.50 59.10 0.70 59.10Q0.90 59.20 1.10 59.20Q1.20 59.20 1.40 59.10Q1.20 58.80 1.20 58.50Q1.20 58.25 1.35 58.20L0.90 57.25Q0.80 57 0.40 56.50Q0 56 0 55.80Q0 55.50 0.05 55.35Q1.10 56.80 1.88 57.65Q2.65 58.50 3.70 58.88Q4.75 59.25 6.65 59.25Q8.50 59.25 10.22 57.73Q11.95 56.20 13.47 53.83Q15 51.45 16.25 48.75Q17.50 46.05 18.40 43.67Q19.30 41.30 19.80 39.90Q20.60 37.60 21.32 35.30Q22.05 33 22.80 30.70L20.10 30.85Q20.05 30.80 20.05 30.65Q20.05 30.35 20.45 29.95Q20.85 29.55 21.35 29.27Q21.85 29 22.10 29L23.40 29Q24.05 27.15 24.98 24.90Q25.90 22.65 27.13 20.40Q28.35 18.15 29.93 16.27Q31.50 14.40 33.45 13.25Q35.40 12.10 37.75 12.10Q38 12.10 38.83 12.20Q39.65 12.30 40.40 12.48Q41.15 12.65 41.15 13Q41.15 13.10 41.10 13.10Q41.10 13.10 41.08 13.10Q41.05 13.10 41.05 13.05L40.70 13Q40.90 13.45 40.90 14.20Q40.90 14.55 40.83 15.07Q40.75 15.60 40.60 15.90Q40.55 16 40.25 16.52Q39.95 17.05 39.65 17.50Q39.35 17.95 39.30 17.95Q39.25 17.90 39.25 17.85Q39.25 17.80 39.60 17.13Q39.95 16.45 39.95 15.75Q39.95 14.60 38.98 13.82Q38 13.05 36.95 13.05Q35.55 13.05 34.13 14.30Q32.70 15.55 31.40 17.55Q30.10 19.55 29.02 21.75Q27.95 23.95 27.15 25.92Q26.35 27.90 25.95 29.05L28.50 29.05Q29.20 29.05 29.85 29.02Q30.50 29 31.15 28.95L31.25 29L31.10 29.15Q30.95 29.30 30.35 29.60Q29.75 29.90 29.15 30.18Q28.55 30.45 28.30 30.50Q27.65 30.60 26.88 30.60Q26.10 30.60 25.40 30.60Q24.90 32.25 24.32 33.88Q23.75 35.50 23.20 37.10Q22 40.50 20.77 43.85Q19.55 47.20 17.88 50.27Q16.20 53.35 13.65 56.10Q11.80 58.10 9.27 59.50Q6.75 60.90 3.95 60.90ZM27.15 47.10Q26.35 47.10 26.13 46.48Q25.90 45.85 25.90 45.20Q25.90 42.85 26.80 40.15Q27.70 37.45 29.15 34.98Q30.60 32.50 32.30 30.90Q34.10 29.25 36.55 29.25Q37.55 29.25 38.52 29.47Q39.50 29.70 40.45 30.10Q41.30 29.50 42.30 29.05Q43.30 28.60 44.35 28.60Q44.60 28.60 44.75 28.90L44.75 29.05Q44.75 29.20 44.63 29.18Q44.50 29.15 44.40 29.15Q43.60 29.15 42.65 30.38Q41.70 31.60 40.75 33.50Q39.80 35.40 39.02 37.50Q38.25 39.60 37.77 41.35Q37.30 43.10 37.30 44Q37.30 44.35 37.42 44.80Q37.55 45.25 38 45.25Q38.25 45.25 38.42 45.15Q38.60 45.05 38.80 44.95Q39.90 44.30 40.98 43.17Q42.05 42.05 42.98 40.73Q43.90 39.40 44.50 38.30Q44.55 38.35 44.55 38.50Q44.55 38.80 44.20 39.38Q43.85 39.95 43.40 40.60Q42.95 41.25 42.58 41.75Q42.20 42.25 42.20 42.35Q42.15 42.70 42.05 42.92Q41.95 43.15 41.75 43.50Q41.10 44.15 40.10 45Q39.10 45.85 38.02 46.48Q36.95 47.10 35.95 47.10Q34.40 47.10 34.40 45.45Q34.40 44.45 34.83 43.13Q35.25 41.80 35.83 40.48Q36.40 39.15 36.85 38.25Q36.85 38.20 36.85 38.10Q36.85 38 36.80 38Q36.75 38 36.65 38.10Q36.05 38.90 34.90 40.40Q33.75 41.90 32.38 43.42Q31 44.95 29.60 46.02Q28.20 47.10 27.15 47.10M29.35 44.95Q29.90 44.95 30.73 44.23Q31.55 43.50 32.48 42.48Q33.40 41.45 34.13 40.50Q34.85 39.55 35.15 39.10Q35.75 38.20 36.52 36.85Q37.30 35.50 37.88 34.05Q38.45 32.60 38.45 31.60Q38.45 30.05 36.90 30.05Q36 30.05 35 30.85Q34 31.65 33.40 32.30Q32.75 33.10 31.93 34.60Q31.10 36.10 30.40 37.85Q29.70 39.60 29.23 41.20Q28.75 42.80 28.75 43.85Q28.75 44.15 28.85 44.55Q28.95 44.95 29.35 44.95ZM43.95 47.15Q43.15 47.15 42.85 46.75Q42.55 46.35 42.55 45.60Q42.55 44.30 43.15 42.33Q43.75 40.35 44.65 38.13Q45.55 35.90 46.42 33.88Q47.30 31.85 47.85 30.55Q47.20 30.60 46.55 30.60Q45.90 30.60 45.20 30.65Q45.10 30.55 45.10 30.45Q45.10 30.15 45.50 29.75Q45.90 29.35 46.42 29.07Q46.95 28.80 47.20 28.80L48.60 28.80Q49.10 27.60 49.63 26.40Q50.15 25.20 50.60 24Q50.85 23.35 51.17 22.92Q51.50 22.50 52.10 22.10Q52.95 21.55 54.20 21.20Q55.45 20.85 56.40 20.85Q56.50 20.85 56.63 20.95Q56.75 21.05 56.80 21.10L56.80 21.30Q56.80 21.45 56.67 21.40Q56.55 21.35 56.45 21.35Q55.85 21.35 55.05 22.32Q54.25 23.30 53.40 24.65Q52.55 26 51.92 27.22Q51.30 28.45 51.05 28.90L53.05 28.90Q53.85 28.90 54.65 28.88Q55.45 28.85 56.25 28.75L56.30 28.85Q56.25 28.85 56.25 28.90Q56.25 28.95 56.20 28.95Q56.05 29.10 55.45 29.43Q54.85 29.75 54.25 30Q53.65 30.25 53.40 30.30Q52.60 30.40 51.83 30.45Q51.05 30.50 50.25 30.50Q49.75 31.60 48.95 33.40Q48.15 35.20 47.35 37.23Q46.55 39.25 46.02 41.08Q45.50 42.90 45.50 44.10Q45.50 44.40 45.60 44.80Q45.70 45.20 46.10 45.20Q46.45 45.20 46.80 44.95Q47.90 44.30 48.98 43.17Q50.05 42.05 50.98 40.73Q51.90 39.40 52.45 38.30Q52.55 38.35 52.55 38.50Q52.55 38.80 52.20 39.38Q51.85 39.95 51.40 40.60Q50.95 41.25 50.58 41.75Q50.20 42.25 50.20 42.35Q50.15 42.75 50.02 42.92Q49.90 43.10 49.75 43.50Q49.10 44.10 48.10 44.98Q47.10 45.85 46 46.50Q44.90 47.15 43.95 47.15ZM61.70 25.50Q61.30 25.50 60.48 25.17Q59.65 24.85 59.65 24.35Q59.65 24.30 59.68 24.27Q59.70 24.25 59.70 24.20Q59.95 23.70 60.83 23.60Q61.70 23.50 62.15 23.30Q63.15 22.90 64.10 22.65Q65.05 22.40 65.90 21.75Q66.10 21.85 66.10 21.95Q66.10 22.15 65.67 22.50Q65.25 22.85 65.10 23.10Q64.90 23.40 64.22 23.97Q63.55 24.55 62.80 25.02Q62.05 25.50 61.70 25.50M53.25 47.15Q52.45 47.15 52.15 46.75Q51.85 46.35 51.85 45.60Q51.85 43.95 52.52 41.60Q53.20 39.25 54.05 36.83Q54.90 34.40 55.40 32.50Q55.60 31.80 56.38 31.52Q57.15 31.25 57.70 30.85Q58.50 30.30 59.40 29.93Q60.30 29.55 61.30 29.55Q61.55 29.55 61.63 29.65Q61.70 29.75 61.70 29.80Q61.70 30.10 61.35 30.10Q60.65 30.10 59.90 30.93Q59.15 31.75 58.40 33.05Q57.65 34.35 57.05 35.75Q56.45 37.15 56 38.33Q55.55 39.50 55.40 40.05Q55.15 40.85 54.90 41.92Q54.65 43 54.65 43.90Q54.65 44.25 54.75 44.73Q54.85 45.20 55.35 45.20Q55.70 45.20 56.10 44.95Q57.20 44.30 58.28 43.17Q59.35 42.05 60.28 40.73Q61.20 39.40 61.75 38.30Q61.85 38.35 61.85 38.50Q61.85 38.80 61.50 39.38Q61.15 39.95 60.70 40.60Q60.25 41.25 59.88 41.75Q59.50 42.25 59.50 42.35Q59.45 42.75 59.35 42.92Q59.25 43.10 59.05 43.50Q58.45 44.10 57.45 44.98Q56.45 45.85 55.35 46.50Q54.25 47.15 53.25 47.15ZM58.10 47.65Q58.05 47.65 58.05 47.60Q58.05 47.40 58.23 47.20Q58.40 47 58.45 46.90Q58.80 46.35 59.28 45.02Q59.75 43.70 60.23 42.02Q60.70 40.35 61.13 38.63Q61.55 36.90 61.90 35.45Q62.25 34 62.40 33.25Q62.50 32.85 62.60 32.20Q62.70 31.55 62.90 30.90Q63.10 30.25 63.35 30.05Q63.80 29.65 64.70 29.35Q65.60 29.05 66.55 28.88Q67.50 28.70 68.05 28.70Q68.35 28.70 68.50 29L68.55 29.15Q68.50 29.30 68.40 29.27Q68.30 29.25 68.20 29.25Q67.10 29.25 66.28 30.47Q65.45 31.70 64.83 33.48Q64.20 35.25 63.83 36.90Q63.45 38.55 63.25 39.40Q64.85 36.70 66.93 34.15Q69 31.60 71.75 30.05Q72.15 29.85 72.58 29.63Q73 29.40 73.40 29.40Q74.05 29.40 74.20 29.97Q74.35 30.55 74.35 31.05Q74.35 31.70 73.98 32.88Q73.60 34.05 73.13 35.20Q72.65 36.35 72.35 37Q73.90 34.95 75.80 33.13Q77.70 31.30 80 30.05Q80.35 29.85 80.80 29.63Q81.25 29.40 81.65 29.40Q82.30 29.40 82.43 29.97Q82.55 30.55 82.55 31.05Q82.55 31.80 82.13 32.92Q81.70 34.05 81.18 35.17Q80.65 36.30 80.35 37.05Q80 37.85 79.68 38.70Q79.35 39.55 79.10 40.40Q78.90 41.20 78.65 42.17Q78.40 43.15 78.40 44Q78.40 44.35 78.53 44.80Q78.65 45.25 79.10 45.25Q79.35 45.25 79.53 45.15Q79.70 45.05 79.90 44.95Q81.05 44.30 82.13 43.17Q83.20 42.05 84.10 40.73Q85 39.40 85.60 38.30Q85.65 38.35 85.65 38.50Q85.65 38.80 85.30 39.38Q84.95 39.95 84.50 40.60Q84.05 41.25 83.68 41.75Q83.30 42.25 83.30 42.35Q83.25 42.70 83.15 42.92Q83.05 43.15 82.85 43.50Q82.25 44.10 81.13 44.98Q80 45.85 78.80 46.52Q77.60 47.20 76.70 47.20Q75.95 47.20 75.70 46.67Q75.45 46.15 75.45 45.50Q75.45 44.20 76.05 42.27Q76.65 40.35 77.40 38.40Q78.15 36.45 78.60 35.20Q78.75 34.80 79.08 33.90Q79.40 33 79.40 32.65Q79.40 32.35 79.30 32.05Q79.20 31.75 78.80 31.75Q78 31.75 76.88 32.80Q75.75 33.85 74.60 35.33Q73.45 36.80 72.58 38.17Q71.70 39.55 71.35 40.20Q70.85 41.20 70.40 42.27Q69.95 43.35 69.75 44.45Q69.30 44.45 68.58 45.05Q67.85 45.65 67.23 46.23Q66.60 46.80 66.45 46.80Q66.35 46.80 66.40 46.67Q66.45 46.55 66.45 46.45L66.50 46.10Q66.60 45.35 66.83 44.63Q67.05 43.90 67.25 43.25Q67.50 42.40 67.83 41.52Q68.15 40.65 68.50 39.85Q68.65 39.45 69.08 38.42Q69.50 37.40 70 36.15Q70.50 34.90 70.85 33.92Q71.20 32.95 71.20 32.65Q71.20 32.40 71.13 32.10Q71.05 31.80 70.65 31.80Q70.15 31.80 69.38 32.45Q68.60 33.10 68.20 33.50Q66.05 35.85 64.48 38.83Q62.90 41.80 61.90 44.85Q61.75 45.25 61.73 45.40Q61.70 45.55 61.30 45.85Q61.15 45.90 60.38 46.35Q59.60 46.80 58.88 47.23Q58.15 47.65 58.10 47.65ZM84.65 47.10Q83.85 47.10 83.63 46.48Q83.40 45.85 83.40 45.20Q83.40 42.85 84.30 40.15Q85.20 37.45 86.65 34.98Q88.10 32.50 89.80 30.90Q91.60 29.25 94.05 29.25Q95.05 29.25 96.03 29.47Q97 29.70 97.95 30.10Q98.80 29.50 99.80 29.05Q100.80 28.60 101.85 28.60Q102.10 28.60 102.25 28.90L102.25 29.05Q102.25 29.20 102.13 29.18Q102 29.15 101.90 29.15Q101.10 29.15 100.15 30.38Q99.20 31.60 98.25 33.50Q97.30 35.40 96.53 37.50Q95.75 39.60 95.28 41.35Q94.80 43.10 94.80 44Q94.80 44.35 94.93 44.80Q95.05 45.25 95.50 45.25Q95.75 45.25 95.93 45.15Q96.10 45.05 96.30 44.95Q97.40 44.30 98.48 43.17Q99.55 42.05 100.48 40.73Q101.40 39.40 102 38.30Q102.05 38.35 102.05 38.50Q102.05 38.80 101.70 39.38Q101.35 39.95 100.90 40.60Q100.45 41.25 100.08 41.75Q99.70 42.25 99.70 42.35Q99.65 42.70 99.55 42.92Q99.45 43.15 99.25 43.50Q98.60 44.15 97.60 45Q96.60 45.85 95.53 46.48Q94.45 47.10 93.45 47.10Q91.90 47.10 91.90 45.45Q91.90 44.45 92.33 43.13Q92.75 41.80 93.33 40.48Q93.90 39.15 94.35 38.25Q94.35 38.20 94.35 38.10Q94.35 38 94.30 38Q94.25 38 94.15 38.10Q93.55 38.90 92.40 40.40Q91.25 41.90 89.88 43.42Q88.50 44.95 87.10 46.02Q85.70 47.10 84.65 47.10M86.85 44.95Q87.40 44.95 88.23 44.23Q89.05 43.50 89.98 42.48Q90.90 41.45 91.63 40.50Q92.35 39.55 92.65 39.10Q93.25 38.20 94.03 36.85Q94.80 35.50 95.38 34.05Q95.95 32.60 95.95 31.60Q95.95 30.05 94.40 30.05Q93.50 30.05 92.50 30.85Q91.50 31.65 90.90 32.30Q90.25 33.10 89.42 34.60Q88.60 36.10 87.90 37.85Q87.20 39.60 86.73 41.20Q86.25 42.80 86.25 43.85Q86.25 44.15 86.35 44.55Q86.45 44.95 86.85 44.95ZM101.20 47.10Q100.40 47.10 100.17 46.48Q99.95 45.85 99.95 45.20Q99.95 42.85 100.85 40.15Q101.75 37.45 103.20 34.98Q104.65 32.50 106.35 30.90Q107.35 30 108.30 29.57Q109.25 29.15 110.65 29.15Q111.45 29.15 112.25 29.25Q113.05 29.35 113.85 29.50Q116.35 23.95 118.50 18.25Q118.95 17.10 120 16.35Q120.85 15.80 122.10 15.45Q123.35 15.10 124.30 15.10Q124.40 15.10 124.55 15.20Q124.70 15.30 124.75 15.40L124.75 15.55Q124.70 15.70 124.60 15.67Q124.50 15.65 124.40 15.65Q123.70 15.65 122.78 16.70Q121.85 17.75 120.83 19.45Q119.80 21.15 118.80 23.17Q117.80 25.20 116.92 27.13Q116.05 29.05 115.42 30.57Q114.80 32.10 114.50 32.80Q114.15 33.75 113.55 35.25Q112.95 36.75 112.40 38.45Q111.85 40.15 111.45 41.65Q111.05 43.15 111.05 44.15Q111.05 44.45 111.15 44.85Q111.25 45.25 111.65 45.25Q111.90 45.25 112.08 45.15Q112.25 45.05 112.45 44.95Q113.60 44.30 114.67 43.17Q115.75 42.05 116.65 40.73Q117.55 39.40 118.10 38.30Q118.20 38.35 118.20 38.50Q118.20 38.85 117.63 39.73Q117.05 40.60 116.47 41.38Q115.90 42.15 115.85 42.35Q115.80 42.70 115.70 42.92Q115.60 43.15 115.40 43.50Q114.75 44.15 113.75 45Q112.75 45.85 111.67 46.48Q110.60 47.10 109.60 47.10Q108.05 47.10 108.05 45.45Q108.05 44.45 108.47 43.15Q108.90 41.85 109.47 40.55Q110.05 39.25 110.50 38.35Q109.95 39.15 108.83 40.60Q107.70 42.05 106.33 43.55Q104.95 45.05 103.60 46.08Q102.25 47.10 101.20 47.10M103.40 44.95Q103.95 44.95 104.78 44.25Q105.60 43.55 106.53 42.52Q107.45 41.50 108.17 40.58Q108.90 39.65 109.20 39.20Q109.80 38.30 110.55 36.90Q111.30 35.50 111.88 34.05Q112.45 32.60 112.45 31.60Q112.45 30.05 110.95 30.05Q110 30.05 109.03 30.85Q108.05 31.65 107.45 32.30Q106.80 33.10 105.97 34.60Q105.15 36.10 104.45 37.85Q103.75 39.60 103.28 41.20Q102.80 42.80 102.80 43.85Q102.80 44.15 102.90 44.55Q103 44.95 103.40 44.95ZM117.35 46.95Q115.85 46.95 115.85 45.30Q115.85 44.15 116.45 42.10Q117.05 40.05 117.88 37.73Q118.70 35.40 119.53 33.33Q120.35 31.25 120.80 30.05Q121.45 28.30 122.40 26Q123.35 23.70 124.60 21.32Q125.85 18.95 127.43 16.95Q129 14.95 130.93 13.70Q132.85 12.45 135.15 12.45Q137.65 12.45 138.47 13.35Q139.30 14.25 139.30 15.20Q139.30 15.60 139.03 15.70Q138.75 15.80 138.75 15.45Q138.75 14.40 137.93 13.73Q137.10 13.05 135.90 13.05Q133.85 13.05 132 14.60Q130.15 16.15 128.55 18.60Q126.95 21.05 125.65 23.77Q124.35 26.50 123.38 28.93Q122.40 31.35 121.85 32.80Q121.50 33.75 120.90 35.27Q120.30 36.80 119.73 38.48Q119.15 40.15 118.75 41.67Q118.35 43.20 118.35 44.15Q118.35 44.45 118.45 44.85Q118.55 45.25 118.95 45.25Q119.20 45.25 119.38 45.15Q119.55 45.05 119.75 44.95Q120.90 44.30 121.98 43.17Q123.05 42.05 123.95 40.73Q124.85 39.40 125.45 38.30Q125.50 38.35 125.50 38.50Q125.50 38.90 124.92 39.75Q124.35 40.60 123.78 41.38Q123.20 42.15 123.15 42.35Q123.10 42.70 123 42.92Q122.90 43.15 122.75 43.50Q122.15 44.10 121.23 44.90Q120.30 45.70 119.30 46.33Q118.30 46.95 117.35 46.95ZM121.80 47.65Q121.75 47.65 121.75 47.60Q121.75 47.40 121.93 47.20Q122.10 47 122.15 46.90Q122.50 46.35 122.98 45.02Q123.45 43.70 123.93 42.02Q124.40 40.35 124.83 38.63Q125.25 36.90 125.60 35.45Q125.95 34 126.10 33.25Q126.20 32.85 126.30 32.20Q126.40 31.55 126.60 30.90Q126.80 30.25 127.05 30.05Q127.50 29.65 128.40 29.35Q129.30 29.05 130.25 28.88Q131.20 28.70 131.75 28.70Q132.05 28.70 132.20 29L132.25 29.15Q132.20 29.30 132.10 29.27Q132 29.25 131.90 29.25Q130.80 29.25 129.98 30.47Q129.15 31.70 128.53 33.48Q127.90 35.25 127.53 36.90Q127.15 38.55 126.95 39.40Q128.55 36.70 130.63 34.15Q132.70 31.60 135.45 30.05Q135.85 29.85 136.28 29.63Q136.70 29.40 137.10 29.40Q137.75 29.40 137.90 29.97Q138.05 30.55 138.05 31.05Q138.05 31.70 137.68 32.88Q137.30 34.05 136.83 35.20Q136.35 36.35 136.05 37Q137.60 34.95 139.50 33.13Q141.40 31.30 143.70 30.05Q144.05 29.85 144.50 29.63Q144.95 29.40 145.35 29.40Q146 29.40 146.13 29.97Q146.25 30.55 146.25 31.05Q146.25 31.80 145.83 32.92Q145.40 34.05 144.88 35.17Q144.35 36.30 144.05 37.05Q143.70 37.85 143.38 38.70Q143.05 39.55 142.80 40.40Q142.60 41.20 142.35 42.17Q142.10 43.15 142.10 44Q142.10 44.35 142.23 44.80Q142.35 45.25 142.80 45.25Q143.05 45.25 143.23 45.15Q143.40 45.05 143.60 44.95Q144.75 44.30 145.83 43.17Q146.90 42.05 147.80 40.73Q148.70 39.40 149.30 38.30Q149.35 38.35 149.35 38.50Q149.35 38.80 149 39.38Q148.65 39.95 148.20 40.60Q147.75 41.25 147.38 41.75Q147 42.25 147 42.35Q146.95 42.70 146.85 42.92Q146.75 43.15 146.55 43.50Q145.95 44.10 144.83 44.98Q143.70 45.85 142.50 46.52Q141.30 47.20 140.40 47.20Q139.65 47.20 139.40 46.67Q139.15 46.15 139.15 45.50Q139.15 44.20 139.75 42.27Q140.35 40.35 141.10 38.40Q141.85 36.45 142.30 35.20Q142.45 34.80 142.78 33.90Q143.10 33 143.10 32.65Q143.10 32.35 143 32.05Q142.90 31.75 142.50 31.75Q141.70 31.75 140.58 32.80Q139.45 33.85 138.30 35.33Q137.15 36.80 136.28 38.17Q135.40 39.55 135.05 40.20Q134.55 41.20 134.10 42.27Q133.65 43.35 133.45 44.45Q133 44.45 132.28 45.05Q131.55 45.65 130.93 46.23Q130.30 46.80 130.15 46.80Q130.05 46.80 130.10 46.67Q130.15 46.55 130.15 46.45L130.20 46.10Q130.30 45.35 130.53 44.63Q130.75 43.90 130.95 43.25Q131.20 42.40 131.53 41.52Q131.85 40.65 132.20 39.85Q132.35 39.45 132.78 38.42Q133.20 37.40 133.70 36.15Q134.20 34.90 134.55 33.92Q134.90 32.95 134.90 32.65Q134.90 32.40 134.83 32.10Q134.75 31.80 134.35 31.80Q133.85 31.80 133.08 32.45Q132.30 33.10 131.90 33.50Q129.75 35.85 128.18 38.83Q126.60 41.80 125.60 44.85Q125.45 45.25 125.43 45.40Q125.40 45.55 125.00 45.85Q124.85 45.90 124.08 46.35Q123.30 46.80 122.58 47.23Q121.85 47.65 121.80 47.65Z"
     fill="#083D77"
    stroke="#083D77"
    stroke-width="3"   
    stroke-linecap="round"
    stroke-linejoin="round"
    stroke-dasharray="1250"
    stroke-dashoffset="1250">
      <animate 
        attributeName="stroke-dashoffset"
        from="1250"
        to="0"
        begin="1s"
        dur="6s"
        fill="freeze"/>
      <set 
        attributeName="stroke-dashoffset" 
        to="0" 
        begin="animate.end" end="repeat.click;indefinite"/>
  </path>
</svg>
